<svg width="19" height="19" viewBox="0 0 19 19" fill="none" xmlns="http://www.w3.org/2000/svg">
<path d="M5.84244 2.36708C5.93436 2.27493 6.04356 2.20181 6.16379 2.15192C6.28401 2.10203 6.4129 2.07635 6.54306 2.07635C6.67323 2.07635 6.80211 2.10203 6.92234 2.15192C7.04256 2.20181 7.15176 2.27493 7.24369 2.36708L13.8224 8.94583C13.8958 9.01907 13.9541 9.10607 13.9938 9.20184C14.0335 9.29761 14.054 9.40027 14.054 9.50396C14.054 9.60764 14.0335 9.71031 13.9938 9.80608C13.9541 9.90185 13.8958 9.98884 13.8224 10.0621L7.24369 16.6408C6.85577 17.0287 6.23035 17.0287 5.84244 16.6408C5.45452 16.2529 5.45452 15.6275 5.84244 15.2396L11.5741 9.5L5.83452 3.76042C5.45452 3.38042 5.45452 2.74708 5.84244 2.36708Z" fill="#ED23D9" stroke="#ED23D9" stroke-width="0.2"/>
</svg>
